<svg width="36" height="36" viewBox="0 0 36 36" fill="none" xmlns="http://www.w3.org/2000/svg">
<g filter="url(#filter0_dd)">
<path d="M31.496 13.746C31.496 6.155 25.342 0 17.748 0C10.156 0 4 6.155 4 13.746C4 21.341 10.156 27.494 17.748 27.494C25.342 27.494 31.496 21.341 31.496 13.746ZM17.457 22.491L9.485 10.008C9.432 9.94 9.403 9.858 9.403 9.776L9.439 9.61C9.5 9.482 9.633 9.398 9.776 9.398H25.718C25.862 9.398 25.994 9.482 26.056 9.61C26.12 9.742 26.104 9.895 26.016 10.007L18.044 22.49C17.972 22.58 17.864 22.636 17.749 22.636C17.637 22.637 17.529 22.581 17.457 22.491Z" fill="white"/>
</g>
<defs>
<filter id="filter0_dd" x="0" y="0" width="35.496" height="35.494" filterUnits="userSpaceOnUse" color-interpolation-filters="sRGB">
<feFlood flood-opacity="0" result="BackgroundImageFix"/>
<feColorMatrix in="SourceAlpha" type="matrix" values="0 0 0 0 0 0 0 0 0 0 0 0 0 0 0 0 0 0 127 0"/>
<feOffset dy="4"/>
<feGaussianBlur stdDeviation="2"/>
<feColorMatrix type="matrix" values="0 0 0 0 0 0 0 0 0 0 0 0 0 0 0 0 0 0 0.25 0"/>
<feBlend mode="normal" in2="BackgroundImageFix" result="effect1_dropShadow"/>
<feColorMatrix in="SourceAlpha" type="matrix" values="0 0 0 0 0 0 0 0 0 0 0 0 0 0 0 0 0 0 127 0"/>
<feOffset dy="4"/>
<feGaussianBlur stdDeviation="2"/>
<feColorMatrix type="matrix" values="0 0 0 0 0 0 0 0 0 0 0 0 0 0 0 0 0 0 0.25 0"/>
<feBlend mode="normal" in2="effect1_dropShadow" result="effect2_dropShadow"/>
<feBlend mode="normal" in="SourceGraphic" in2="effect2_dropShadow" result="shape"/>
</filter>
</defs>
</svg>
